<svg width="256" height="256" xmlns="http://www.w3.org/2000/svg" data-name="Layer 1" viewBox="0 0 256 256" id="beam">
<style>
#beam {
    rect {fill: #15191C}

    @media (prefers-color-scheme: light) {
        rect {fill: #F4F2ED}
    }
}
</style>
 <defs>
  <linearGradient y2="0.49999" x2="1" y1="0.49999" x1="0" id="linear-gradient">
   <stop stop-color="#ffc400" offset="0"/>
   <stop stop-color="#fecd00" offset="0.13695"/>
   <stop stop-color="#fed400" offset="0.36528"/>
   <stop stop-color="#fed600" offset="1"/>
  </linearGradient>
  <linearGradient y2="0.50001" x2="1" y1="0.50001" x1="-0.92618" id="linear-gradient-2">
   <stop stop-opacity="0.7" stop-color="#ff0" offset="0"/>
   <stop stop-opacity="0.66022" stop-color="#fff600" offset="0.13194"/>
   <stop stop-opacity="0.62592" stop-color="#feef00" offset="0.31385"/>
   <stop stop-opacity="0.60587" stop-color="#feea00" offset="0.54652"/>
   <stop stop-opacity="0.6" stop-color="#fee900" offset="1"/>
  </linearGradient>
 </defs>
 <title>beam-logo_3-color</title>
 <g>
  <title>Layer 1</title>
  <rect rx="25" id="svg_12" height="256" width="256" y="0" x="0" fill="#f4f2ed"/>
  <polygon id="svg_1" fill="#fee900" points="81.5799999833107,95.53200149536133 117.38800048828125,118.00499725341797 156.0500030517578,93.74100112915039 156.0500030517578,74.79500007629395 81.5799999833107,51.4520001411438 81.5799999833107,95.53200149536133 " class="cls-1"/>
  <polygon id="svg_2" fill="#ffc400" points="81.5799999833107,51.4520001411438 81.5799999833107,95.53200149536133 81.5799999833107,96.125 81.5799999833107,140.47699737548828 156.0500030517578,93.74100112915039 156.0500030517578,74.79500007629395 81.5799999833107,51.4520001411438 " class="cls-2"/>
  <polygon id="svg_3" fill="url(#linear-gradient)" opacity="0.75" points="81.5799999833107,96.08300018310547 81.5799999833107,140.43599700927734 117.38800048828125,117.96299743652344 81.5799999833107,95.49100112915039 81.5799999833107,96.08300018310547 " class="cls-3"/>
  <polygon id="svg_4" fill="#ffc400" points="81.5799999833107,95.53200149536133 81.5799999833107,140.47699737548828 81.5799999833107,184.11099243164062 156.0500030517578,161.21499633789062 156.0500030517578,142.26799774169922 81.5799999833107,95.53200149536133 " class="cls-2"/>
  <polygon id="svg_5" fill="#ffe082" points="81.25,147.66500091552734 81.25,155.7750015258789 156.0500030517578,162.43499755859375 156.0500030517578,141.00499725341797 81.25,147.66500091552734 " class="cls-4"/>
  <polygon id="svg_6" fill="#ffe082" points="81,80.4630012512207 81,88.57300186157227 155.7030029296875,95.23300170898438 155.7030029296875,73.80299949645996 81,80.4630012512207 " class="cls-4"/>
  <polygon id="svg_7" fill="#fee900" points="81.5799999833107,51.4520001411438 156.0500030517578,74.79500007629395 156.0500030517578,74.79500007629395 81.5799999833107,51.4520001411438 " class="cls-1"/>
  <polygon id="svg_8" fill="url(#linear-gradient-2)" points="117.38800048828125,118.00499725341797 156.0500030517578,93.74100112915039 117.38800048828125,118.00499725341797 117.38800048828125,118.00499725341797 " class="cls-5"/>
  <path id="svg_9" fill="#fff" d="m147.54178,151.71973a8.5081,8.5081 0 0 0 8.50819,8.50818l0,-17.01636a8.50823,8.50823 0 0 0 -8.50819,8.50818z" class="cls-6"/>
  <path id="svg_10" fill="#fff" d="m147.54178,84.51819a8.5081,8.5081 0 0 0 8.50819,8.50818l0,-17.01636a8.50823,8.50823 0 0 0 -8.50819,8.50818z" class="cls-6"/>
  <path id="svg_11" stroke-width="0.4px" stroke-miterlimit="10" stroke="#ff6d00" fill="#ff6d00" d="m182.77451,137.04132a31.95182,31.95182 0 0 0 -4.48779,-9.56738a30.16459,30.16459 0 0 0 -7.59473,-7.5459a34.29159,34.29159 0 0 0 -10.80028,-4.88232q10.25682,-4.33887 15.58398,-12.23047a31.00862,31.00862 0 0 0 5.32619,-17.75391a41.11393,41.11393 0 0 0 -3.40283,-17.40869a30.92584,30.92584 0 0 0 -9.81401,-12.08252a44.12955,44.12955 0 0 0 -15.68262,-7.05225a86.44973,86.44973 0 0 0 -20.91014,-2.31787l-49.21776,0l0,5.54242l72.89409,22.71045a2,2 0 0 1 1.38136,1.90192l0,16.27502a2,2 0 0 1 -1.02211,1.74463l-37.34693,23.63043l37.34693,23.63049a2,2 0 0 1 1.02214,1.74463l0,16.27502a2,2 0 0 1 -1.38136,1.90192l-72.89412,22.71045l0,5.54248l52.66992,0a75.21864,75.21864 0 0 0 20.86084,-2.66309a43.55411,43.55411 0 0 0 15.68263,-7.94043a34.29293,34.29293 0 0 0 9.86325,-13.11816a45.37613,45.37613 0 0 0 3.40283,-18.19727a39.65034,39.65034 0 0 0 -1.47949,-10.84961z" class="cls-7"/>
 </g>
</svg>
