<svg width="256" height="256" xmlns="http://www.w3.org/2000/svg" data-name="Layer 1" viewBox="0 0 256 256" id="beam">
<style>
#beam {
    rect {fill: #15191C}

}
</style>
 <defs>
  <linearGradient id="linear-gradient" x1="0" y1="0.49999" x2="1" y2="0.49999">
   <stop offset="0" stop-color="#ffc400"/>
   <stop offset="0.13695" stop-color="#fecd00"/>
   <stop offset="0.36528" stop-color="#fed400"/>
   <stop offset="1" stop-color="#fed600"/>
  </linearGradient>
  <linearGradient id="linear-gradient-2" x1="-0.92618" y1="0.50001" x2="1" y2="0.50001">
   <stop offset="0" stop-color="#ff0" stop-opacity="0.7"/>
   <stop offset="0.13194" stop-color="#fff600" stop-opacity="0.66022"/>
   <stop offset="0.31385" stop-color="#feef00" stop-opacity="0.62592"/>
   <stop offset="0.54652" stop-color="#feea00" stop-opacity="0.60587"/>
   <stop offset="1" stop-color="#fee900" stop-opacity="0.6"/>
  </linearGradient>
 </defs>
 <title>beam-logo_3-color</title>
 <g>
  <title>Layer 1</title>
  <rect x="0" y="0" fill="#15191C" width="256" height="256" id="svg_12" rx="25"/>
  <g id="svg_13">
   <polygon class="cls-1" points="76.94821166992188,105.52655029296875 112.75621032714844,127.99954223632812 151.418212890625,103.73553466796875 151.418212890625,84.78953552246094 76.94821166992188,61.44654083251953 76.94821166992188,105.52655029296875 " fill="#fee900" id="svg_1"/>
   <polygon class="cls-2" points="76.94821166992188,61.44654083251953 76.94821166992188,105.52655029296875 76.94821166992188,106.11953735351562 76.94821166992188,150.47152709960938 151.418212890625,103.73553466796875 151.418212890625,84.78953552246094 76.94821166992188,61.44654083251953 " fill="#ffc400" id="svg_2"/>
   <polygon class="cls-3" points="76.94821166992188,106.07754516601562 76.94821166992188,150.4305419921875 112.75621032714844,127.9575424194336 76.94821166992188,105.48553466796875 76.94821166992188,106.07754516601562 " opacity="0.75" fill="url(#linear-gradient)" id="svg_3"/>
   <polygon class="cls-2" points="76.94821166992188,105.52655029296875 76.94821166992188,150.47152709960938 76.94821166992188,194.10552978515625 151.418212890625,171.20953369140625 151.418212890625,152.26254272460938 76.94821166992188,105.52655029296875 " fill="#ffc400" id="svg_4"/>
   <polygon class="cls-4" points="76.61820983886719,157.6595458984375 76.61820983886719,165.76953125 151.418212890625,172.42953491210938 151.418212890625,150.99952697753906 76.61820983886719,157.6595458984375 " fill="#ffe082" id="svg_5"/>
   <polygon class="cls-4" points="76.36820983886719,90.45755004882812 76.36820983886719,98.56753540039062 151.0712127685547,105.2275390625 151.0712127685547,83.79754638671875 76.36820983886719,90.45755004882812 " fill="#ffe082" id="svg_6"/>
   <polygon class="cls-1" points="76.94821166992188,61.44654083251953 151.418212890625,84.78953552246094 151.418212890625,84.78953552246094 76.94821166992188,61.44654083251953 " fill="#fee900" id="svg_7"/>
   <polygon class="cls-5" points="112.75621032714844,127.99954223632812 151.418212890625,103.73553466796875 112.75621032714844,127.99954223632812 112.75621032714844,127.99954223632812 " fill="url(#linear-gradient-2)" id="svg_8"/>
   <path class="cls-6" d="m142.90999,161.71426a8.5081,8.5081 0 0 0 8.50819,8.50818l0,-17.01636a8.50823,8.50823 0 0 0 -8.50819,8.50818z" fill="#fff" id="svg_9"/>
   <path class="cls-6" d="m142.90999,94.51273a8.5081,8.5081 0 0 0 8.50819,8.50819l0,-17.01637a8.50823,8.50823 0 0 0 -8.50819,8.50818z" fill="#fff" id="svg_10"/>
   <path class="cls-7" d="m178.14272,147.03586a31.95182,31.95182 0 0 0 -4.48779,-9.56738a30.16459,30.16459 0 0 0 -7.59473,-7.5459a34.29159,34.29159 0 0 0 -10.80028,-4.88231q10.25682,-4.33888 15.58398,-12.23048a31.00862,31.00862 0 0 0 5.32619,-17.75391a41.11393,41.11393 0 0 0 -3.40283,-17.40869a30.92584,30.92584 0 0 0 -9.81401,-12.08252a44.12955,44.12955 0 0 0 -15.68262,-7.05225a86.44973,86.44973 0 0 0 -20.91016,-2.31787l-49.21774,0l0,5.54242l72.89409,22.71046a2,2 0 0 1 1.38136,1.90192l0,16.27501a2,2 0 0 1 -1.02211,1.74465l-37.34694,23.63042l37.34694,23.63049a2,2 0 0 1 1.02214,1.74463l0,16.27501a2,2 0 0 1 -1.38136,1.90193l-72.89412,22.71045l0,5.54248l52.66992,0a75.21864,75.21864 0 0 0 20.86084,-2.6631a43.55411,43.55411 0 0 0 15.68263,-7.94043a34.29293,34.29293 0 0 0 9.86325,-13.11815a45.37613,45.37613 0 0 0 3.40282,-18.19728a39.65034,39.65034 0 0 0 -1.47948,-10.84961l0,0.00002l0,0.00003l0,-0.00002z" fill="#ff6d00" stroke="#ff6d00" stroke-miterlimit="10" stroke-width="0.4px" id="svg_11"/>
  </g>
 </g>
</svg>
